<svg width="508" height="46" viewBox="0 0 508 46" fill="none" xmlns="http://www.w3.org/2000/svg">
<path d="M0.432 22.88C0.176 34.976 10.544 45.024 22.896 44.768C31.024 44.768 37.936 40.864 41.584 34.272L35.056 29.664C32.048 34.4 28.016 36.768 22.96 36.768C15.088 36.768 9.328 31.008 9.328 22.944C9.328 14.88 15.088 8.992 22.96 8.992C28.016 8.992 32.048 11.36 35.056 16.096L41.584 11.488C37.808 4.896 30.96 0.991997 22.96 0.991997C10.672 0.735996 0.24 10.784 0.432 22.88ZM48.102 22.88C47.91 34.976 58.342 45.024 70.502 44.768C82.662 45.024 93.222 34.976 93.03 22.88C93.222 10.784 82.662 0.735996 70.502 0.991997C58.342 0.735996 47.91 10.784 48.102 22.88ZM84.134 22.88C84.134 31.008 78.31 36.768 70.566 36.768C62.758 36.768 56.998 31.008 56.998 22.88C56.998 14.752 62.758 8.992 70.566 8.992C78.31 8.992 84.134 14.88 84.134 22.88ZM101.882 26.528C101.882 37.728 109.434 44.768 119.802 44.768C130.042 44.768 137.722 37.728 137.722 26.528V1.76H129.082V27.168C129.082 33.312 125.37 36.768 119.802 36.768C114.362 36.768 110.522 33.312 110.522 27.168V1.76H101.882V26.528ZM176.327 1.76V26.976L151.815 0.991997H148.999V44H157.639V18.656L182.087 44.768H184.967V1.76H176.327ZM206.08 44H214.72V9.568H228.288V1.76H192.576V9.568H206.08V44ZM271.55 44L259.582 27.424C264.19 25.12 267.006 20.768 267.006 15.392C267.006 7.264 260.606 1.76 251.774 1.76H235.902V44H244.542V29.088H250.878L261.822 44H271.55ZM244.542 9.376H251.774C255.678 9.376 258.174 11.808 258.174 15.392C258.174 19.04 255.806 21.472 251.774 21.472H244.542V9.376ZM278.759 44H287.399V1.76H278.759V44ZM298.992 44H328.176V36.192H307.632V25.504H322.16V18.144H307.632V9.568H327.408V1.76H298.992V44ZM334.655 35.424C337.919 41.12 343.807 44.768 350.975 44.768C359.423 44.768 365.759 39.84 365.759 32.096C365.759 26.4 362.431 22.88 355.327 19.744L350.527 17.632C346.943 16.032 345.599 15.008 345.599 12.768C345.599 10.144 347.839 8.672 350.847 8.672C354.047 8.672 356.735 10.272 358.911 13.536L364.799 8.992C362.175 4.128 357.311 0.991997 350.847 0.991997C342.847 0.991997 336.831 5.728 336.831 12.96C336.831 18.592 340.607 22.24 347.071 25.12L351.615 27.168C355.647 29.024 356.991 29.92 356.991 32.416C356.991 35.296 354.751 37.088 350.975 37.088C346.367 37.088 343.359 34.72 340.607 30.944L334.655 35.424ZM419.203 44H428.483L409.667 0.991997H406.787L387.907 44H397.187L399.555 38.496H416.835L419.203 44ZM413.827 31.392H402.563L408.195 17.12L413.827 31.392ZM436.171 44H444.811V29.088H452.043C460.875 29.088 467.275 23.456 467.275 15.392C467.275 7.264 460.875 1.76 452.043 1.76H436.171V44ZM444.811 21.536V9.376H452.043C455.947 9.376 458.443 11.808 458.443 15.392C458.443 19.04 456.075 21.536 452.043 21.536H444.811ZM476.092 44H484.732V29.088H491.964C500.796 29.088 507.196 23.456 507.196 15.392C507.196 7.264 500.796 1.76 491.964 1.76H476.092V44ZM484.732 21.536V9.376H491.964C495.868 9.376 498.364 11.808 498.364 15.392C498.364 19.04 495.996 21.536 491.964 21.536H484.732Z" fill="#377DFF"/>
</svg>
